<svg width="4400" height="800.0000000000001" xmlns="http://www.w3.org/2000/svg">
 <style type="text/css">.st0{fill:#FAFAFA;}</style>

 <g stroke="null">
  <title>background</title>
  <rect x="-1" y="-1" width="4402" height="802" id="canvas_background" fill="none" stroke="null"/>
 </g>
 <g stroke="null">
  <title>Layer 1</title>
  <g id="svg_1" stroke="null">
   <path class="st0" d="m646.999868,54.1c-6.9,-20.6 -21.5,-36.6 -39.6,-45.6c-18,-9 -39.6,-11.2 -75.2,0.7l-404.3,134.8c-35.6,11.9 -51.6,26.5 -60.6,44.6c-9.1,18 -11.2,39.5 -4.3,60.2c6.9,20.6 21.5,36.6 39.6,45.6c18,9 39.6,11.2 75.2,-0.7l404.3,-134.8c35.6,-11.8 51.6,-26.5 60.6,-44.6c9.1,-18 11.2,-39.5 4.3,-60.2z" id="svg_2" stroke="null"/>
   <path class="st0" d="m646.999868,303.6c-6.9,-20.6 -21.5,-36.6 -39.6,-45.6c-18,-9 -39.6,-11.2 -75.2,0.7l-404.3,134.8c-35.6,11.9 -51.6,26.5 -60.6,44.6c-9.1,18 -11.2,39.5 -4.3,60.2c6.9,20.6 21.5,36.6 39.6,45.6c18,9 39.6,11.2 75.2,-0.7l404.3,-134.7c35.6,-11.9 51.6,-26.5 60.6,-44.7c9.1,-18 11.2,-39.5 4.3,-60.2z" id="svg_3" stroke="null"/>
   <path class="st0" d="m646.999868,553.2c-6.9,-20.6 -21.5,-36.6 -39.6,-45.6c-18,-9 -39.6,-11.2 -75.2,0.7l-404.3,134.8c-35.6,11.9 -51.6,26.5 -60.6,44.6c-9.1,18 -11.2,39.5 -4.3,60.2c6.9,20.6 21.5,36.6 39.6,45.6c18,9 39.6,11.2 75.2,-0.7l404.3,-134.8c35.6,-11.8 51.6,-26.5 60.6,-44.6c9.1,-18 11.2,-39.5 4.3,-60.2z" id="svg_4" stroke="null"/>
  </g>
  <text fill="#ffffff" stroke-width="0" x="915.327473" y="331.270694" id="svg_6" font-size="100" font-family="Helvetica, Arial, sans-serif" text-anchor="start" xml:space="preserve" font-weight="bold" transform="matrix(6.943869362903786,0,0,6.203457176910488,-5415.262992114554,-1440.0520963583942) " stroke="#000">PDB-Dash</text>
 </g>
</svg>